<?xml version="1.0" encoding="UTF-8" standalone="no"?>
<!-- Created with Inkscape (http://www.inkscape.org/) -->

<svg
   width="286.74384mm"
   height="274.36066mm"
   viewBox="0 0 286.74384 274.36066"
   version="1.1"
   id="svg1"
   xml:space="preserve"
   inkscape:version="1.4 (86a8ad7, 2024-10-11)"
   sodipodi:docname="satellite.svg"
   inkscape:export-filename="satellite.svg"
   inkscape:export-xdpi="96"
   inkscape:export-ydpi="96"
   xmlns:inkscape="http://www.inkscape.org/namespaces/inkscape"
   xmlns:sodipodi="http://sodipodi.sourceforge.net/DTD/sodipodi-0.dtd"
   xmlns="http://www.w3.org/2000/svg"
   xmlns:svg="http://www.w3.org/2000/svg"><sodipodi:namedview
     id="namedview1"
     pagecolor="#ffffff"
     bordercolor="#000000"
     borderopacity="0.25"
     inkscape:showpageshadow="2"
     inkscape:pageopacity="0.0"
     inkscape:pagecheckerboard="0"
     inkscape:deskcolor="#d1d1d1"
     inkscape:document-units="mm"
     inkscape:zoom="0.68"
     inkscape:cx="541.91176"
     inkscape:cy="518.38235"
     inkscape:window-width="2560"
     inkscape:window-height="1369"
     inkscape:window-x="2552"
     inkscape:window-y="1"
     inkscape:window-maximized="1"
     inkscape:current-layer="layer1"
     inkscape:clip-to-page="false" /><defs
     id="defs1" /><g
     inkscape:label="Layer 1"
     inkscape:groupmode="layer"
     id="layer1"
     transform="translate(38.371923,-11.319678)"><path
       style="fill:#000000"
       d="m 167.75082,285.51732 c -0.21968,-0.0859 -0.58163,-0.29145 -0.80433,-0.45681 -0.2227,-0.16536 -15.84018,-15.74288 -34.70551,-34.61672 -30.93017,-30.94412 -34.324532,-34.36599 -34.544012,-34.82407 -0.33785,-0.70511 -0.38465,-1.71741 -0.11351,-2.45533 0.17817,-0.48491 0.39619,-0.71808 4.795702,-5.1289 l 4.60903,-4.6209 1.62503,-0.10343 c 2.10181,-0.13377 4.4792,-0.43676 6.40426,-0.8162 0.84373,-0.16631 1.59946,-0.3247 1.67941,-0.35198 0.0799,-0.0273 -2.59778,2.69859 -5.95049,6.05747 l -6.09585,6.10707 5.21932,5.21933 c 4.32338,4.32337 5.24626,5.20755 5.37619,5.15074 0.0863,-0.0377 0.19495,-0.0736 0.24152,-0.0797 0.0466,-0.006 0.0775,-0.0499 0.0688,-0.0973 -0.009,-0.0474 7.50641,-7.6084 16.70033,-16.80224 l 16.71623,-16.71606 -3.13102,-3.13292 -3.13102,-3.13292 0.38442,-0.55033 c 0.50642,-0.72499 1.84916,-2.97189 2.36538,-3.95817 0.22545,-0.43074 0.43186,-0.78316 0.45868,-0.78316 0.0268,0 14.32158,14.27797 31.76614,31.72883 24.74624,24.75519 31.75704,31.81379 31.89788,32.11537 0.42645,0.91317 0.41029,1.95536 -0.0433,2.79367 -0.14359,0.26536 -6.29374,6.46794 -19.65638,19.82395 -18.75629,18.74699 -19.46482,19.44411 -19.93741,19.61631 -0.63329,0.23074 -1.62546,0.23728 -2.19542,0.0145 z m 7.21509,-34.76093 16.89084,-16.891 -5.27045,-5.27045 -5.27045,-5.27044 -16.91199,16.91199 -16.912,16.912 5.24894,5.24945 c 2.88691,2.8872 5.26813,5.24945 5.2916,5.24945 0.0235,0 7.64355,-7.60095 16.93351,-16.891 z m -37.89332,-4.5747 c 0.0904,-0.0684 0.14492,-0.1243 0.12117,-0.1243 -0.0238,0 7.48293,-7.5259 16.68152,-16.72422 l 16.72469,-16.72422 -5.24627,-5.24678 c -2.88545,-2.88573 -5.28446,-5.24678 -5.33112,-5.24678 -0.11071,0 -33.74,33.62862 -33.74,33.73933 0,0.13983 10.3609,10.45688 10.49841,10.45397 0.07,-0.001 0.20121,-0.0586 0.2916,-0.127 z M 71.037568,209.42978 c -2.09532,-0.13281 -4.57756,-0.52752 -6.35353,-1.0103 -11.28303,-3.06716 -19.73946,-12.2662 -21.82853,-23.74543 -0.36745,-2.01913 -0.43533,-2.87268 -0.43425,-5.461 10e-4,-2.55626 0.0877,-3.58003 0.47648,-5.63033 0.80265,-4.23293 2.56986,-8.36135 5.08329,-11.87518 0.65846,-0.92055 1.93047,-2.50559 2.01688,-2.51322 0.0233,-0.002 0.17076,0.48176 0.32773,1.07516 0.64679,2.44501 1.79327,5.64717 2.93818,8.20642 3.37808,7.55114 8.41212,14.41317 14.72575,20.07308 6.79397,6.09049 14.73898,10.48768 23.23155,12.85755 0.77355,0.21586 1.415,0.39918 1.42544,0.40737 0.0389,0.0305 -1.65467,1.39364 -2.38965,1.92337 -4.2444,3.0591 -9.1981,4.97126 -14.32141,5.52817 -1.2094,0.13146 -3.96043,0.22377 -4.89793,0.16434 z m 32.258012,-10.87622 c -11.375782,-0.54345 -22.722752,-5.29548 -31.834672,-13.33213 -1.04689,-0.92335 -3.84123,-3.71226 -4.7476,-4.73838 -7.10259,-8.04099 -11.64439,-17.66878 -13.0206,-27.60134 -0.37458,-2.70346 -0.43229,-3.59263 -0.43138,-6.64634 10e-4,-3.73841 0.23526,-6.07713 0.93022,-9.29142 2.39499,-11.07734 9.10284,-20.30722 18.79336,-25.85932 2.00932,-1.15122 4.58076,-2.29236 6.94466,-3.08184 4.90283,-1.63743 9.8183,-2.31861 15.44967,-2.14101 7.706772,0.24304 15.838202,2.59382 22.955212,6.63628 1.74619,0.99184 3.70159,2.24955 3.74479,2.40866 0.0193,0.0709 0.0422,-0.13771 0.051,-0.46368 0.0178,-0.65863 0.0995,-1.22988 0.3361,-2.3495 0.0566,-0.26776 0.13708,-0.48683 0.17889,-0.48683 0.0418,0 0.0558,-0.0526 0.0312,-0.11684 -0.0247,-0.0643 0.0861,-0.45581 0.24608,-0.87012 0.7337,-1.89979 1.55292,-3.14479 3.05796,-4.6473 1.92294,-1.91973 3.85332,-2.98456 6.52511,-3.59937 0.97172,-0.2236 3.38333,-0.31619 4.46948,-0.17159 2.2645,0.30148 4.5039,1.23285 6.29643,2.6187 1.42665,1.10299 2.94548,2.89641 3.67228,4.33618 0.134,0.26545 0.21999,0.50626 0.19111,0.53515 -0.0289,0.0289 -0.0135,0.0525 0.0343,0.0525 0.11664,0 0.57234,1.16996 0.83251,2.13738 1.25475,4.66563 -0.14465,9.59272 -3.67905,12.95335 -1.40461,1.33555 -2.97501,2.27534 -4.84065,2.89683 -0.90732,0.30226 -2.55711,0.62945 -3.28065,0.65064 -0.21656,0.006 -0.3163,0.0269 -0.22163,0.0458 0.11251,0.0224 0.52687,0.56823 1.19642,1.57597 1.90292,2.86411 3.01545,4.87211 4.51308,8.14569 0.34109,0.74556 1.07084,2.59105 1.47309,3.72533 4.18179,11.792 3.74162,24.36539 -1.21228,34.62868 -5.91431,12.25303 -17.51688,20.29791 -31.5001,21.84123 -1.28584,0.14192 -4.2012,0.30282 -5.16467,0.28504 -0.34925,-0.006 -1.2446,-0.0408 -1.98966,-0.0764 z m -3.305532,-42.88049 c 1.233842,-0.32138 0.397722,0.46725 15.513812,-14.63254 l 13.98629,-13.9712 -0.94762,-0.53709 c -0.52119,-0.2954 -0.96032,-0.57409 -0.97584,-0.61931 -0.0155,-0.0452 -0.066,-0.0822 -0.11227,-0.0822 -0.16191,0 -1.05089,-0.74648 -1.70517,-1.43184 -0.67799,-0.71019 -1.5522,-1.96061 -1.97341,-2.82266 -0.13083,-0.26776 -0.25878,-0.48684 -0.28434,-0.48684 -0.0255,0 -6.33747,6.29603 -14.02648,13.99117 -13.372812,13.38347 -13.992972,14.01757 -14.278252,14.59909 -0.52554,1.07127 -0.5946,2.08143 -0.22045,3.22462 0.67579,2.06482 2.93855,3.31194 5.02373,2.76882 z m 36.695662,-30.82148 c 2.13706,-0.31456 3.89488,-1.20698 5.49303,-2.78874 0.43075,-0.42632 0.78317,-0.79566 0.78317,-0.82076 0,-0.0251 0.17035,-0.29967 0.37856,-0.61016 0.72644,-1.08331 1.2772,-2.48827 1.48575,-3.79004 0.15356,-0.95853 0.0678,-3.06259 -0.15935,-3.90962 -0.59183,-2.20692 -1.8308,-4.07059 -3.58477,-5.39225 -2.89364,-2.18042 -6.88579,-2.56027 -10.08731,-0.95981 -1.12435,0.56207 -1.70442,0.98558 -2.63788,1.9259 -0.46567,0.46909 -0.87807,0.84333 -0.91646,0.83164 -0.0384,-0.0117 -0.0481,0.0139 -0.0215,0.0569 0.0266,0.043 -0.15974,0.40951 -0.41401,0.81451 -0.88446,1.4088 -1.35947,3.04498 -1.38974,4.78701 -0.0214,1.2297 0.0681,1.94945 0.37343,3.00294 0.44778,1.54517 1.21379,2.87808 2.34289,4.07679 0.36321,0.38559 0.66038,0.68357 0.66038,0.66216 0,-0.0214 0.1745,0.0943 0.38778,0.25709 0.57907,0.44201 1.4507,0.93146 2.15808,1.21183 1.80905,0.71703 3.34729,0.90964 5.14794,0.6446 z m -13.35596,-4.20813 c -0.0836,-0.083 -0.0933,-0.0733 -0.0474,0.0474 0.0318,0.0835 0.0791,0.13049 0.10521,0.10442 0.0261,-0.0261 5e-5,-0.0944 -0.0578,-0.15182 z m -1.22062,-5.0776 c -0.0203,-0.10532 -0.0376,-0.0391 -0.0385,0.14718 -9.4e-4,0.18627 0.0156,0.27243 0.0368,0.19149 0.0212,-0.081 0.022,-0.23335 0.002,-0.33867 z m -90.018232,34.22096 c -0.2794,-0.0986 -0.6985,-0.32691 -0.93133,-0.50727 -0.63018,-0.48814 -68.90823,-68.82349 -69.11084,-69.168841 -0.4832,-0.823631 -0.55602,-1.906719 -0.18785,-2.79403 0.17609,-0.424374 1.90836,-2.182534 19.54828,-19.84048 C -7.9455516,46.820035 0.89758841,38.01533 1.0605684,37.910187 c 0.80722,-0.52075 1.94785,-0.607066 2.87867,-0.217841 0.42488,0.177666 3.44518,3.172918 34.4830996,34.197043 23.34002,23.329661 33.98339,34.023001 33.909,34.068211 -0.0596,0.0362 -0.68694,0.38546 -1.394,0.77605 -1.62744,0.89901 -3.19614,1.89679 -4.57626,2.91075 l -1.08084,0.79409 0.78283,-0.79298 0.78283,-0.79298 -5.27175,-5.26925 c -2.89946,-2.89808 -5.30596,-5.269237 -5.34778,-5.269237 -0.0418,0 -0.0491,0.02697 -0.0161,0.05993 0.033,0.03296 -7.53298,7.652917 -16.81322,16.933247 l -16.87315,16.87331 5.20657,5.20709 c 2.86362,2.8639 5.24474,5.20709 5.29139,5.20709 0.0467,0 5.64478,-5.55308 12.44029,-12.34017 6.79551,-6.78709 12.31573,-12.28302 12.26715,-12.21317 -0.0486,0.0699 -0.35389,0.48895 -0.67847,0.93134 -4.40831,6.00817 -7.37312,13.59651 -8.23685,21.082 -0.0564,0.48895 -0.11958,0.94406 -0.14035,1.01136 -0.0246,0.0795 -0.52534,-0.36455 -1.43082,-1.26878 l -1.39305,-1.39114 -5.5671,5.55233 c -6.17344,6.15706 -5.86106,5.89372 -7.08171,5.97005 -0.46808,0.0293 -0.7151,-0.002 -1.11005,-0.14171 z m -3.68308,-45.58836 16.89075,-16.890907 -5.24891,-5.249422 c -2.8869,-2.887182 -5.2869,-5.249422 -5.33333,-5.249422 -0.11057,0 -33.74042959,33.628551 -33.74042959,33.739121 0,0.0834 10.41543959,10.54154 10.49848959,10.54154 0.0235,0 7.64351,-7.60091 16.93343,-16.89091 z M 7.1352384,82.883709 24.005058,66.014042 18.777238,60.785709 c -2.8753,-2.875584 -5.266,-5.228334 -5.31267,-5.228334 -0.11071,0 -33.74,33.628624 -33.74,33.739332 0,0.110692 10.3453104,10.456672 10.4560004,10.456672 0.0467,0 7.67626,-7.591353 16.95467,-16.86967 z M 195.20125,126.08507 c -6.31083,-0.2844 -7.11988,-0.33646 -7.5374,-0.48502 -0.82695,-0.29425 -1.54892,-0.86326 -2.00739,-1.58211 -0.11615,-0.18211 -0.4379,-0.94411 -0.71501,-1.69334 -0.93436,-2.52626 -2.30408,-5.70925 -3.38418,-7.86428 -0.2753,-0.54929 -0.47445,-1.04095 -0.44254,-1.09258 0.0319,-0.0516 0.0211,-0.0711 -0.0239,-0.0432 -0.10503,0.0649 -0.64403,-1.02029 -0.56793,-1.14343 0.0336,-0.0544 0.0182,-0.0684 -0.0375,-0.034 -0.0581,0.0359 -0.18199,-0.11454 -0.32039,-0.38908 -0.12411,-0.2462 -0.57122,-1.05724 -0.99358,-1.8023 -0.42237,-0.74507 -0.75708,-1.36946 -0.7438,-1.38754 0.0133,-0.0181 -0.0114,-0.0562 -0.0549,-0.0847 -0.0435,-0.0285 -0.42748,-0.61432 -0.85336,-1.30186 -0.91108,-1.47081 -2.17047,-3.36114 -3.13473,-4.70521 -0.37877,-0.52797 -0.68868,-0.99469 -0.68868,-1.03717 0,-0.0425 -0.0307,-0.0772 -0.0683,-0.0772 -0.0376,0 -0.25617,-0.25718 -0.48574,-0.5715 -0.70284,-0.962311 -2.66781,-3.38721 -3.72199,-4.593164 -1.34652,-1.540389 -1.74548,-1.966485 -3.67608,-3.926077 -4.16349,-4.22601 -8.42433,-7.73639 -13.4465,-11.078165 -0.8028,-0.534189 -1.43145,-1.002375 -1.397,-1.040413 0.0344,-0.03804 0.0178,-0.04349 -0.0369,-0.01211 -0.0927,0.05308 -1.70004,-0.891138 -1.81487,-1.066103 -0.0285,-0.04341 -0.067,-0.06615 -0.0856,-0.05053 -0.0529,0.04442 -1.68812,-0.911872 -1.64059,-0.959402 0.0233,-0.02327 -0.006,-0.04231 -0.065,-0.04231 -0.059,0 -0.68399,-0.311968 -1.38882,-0.693261 -1.83993,-0.995345 -4.97683,-2.513403 -6.84133,-3.31076 -1.93678,-0.828268 -2.16394,-0.957801 -2.7272,-1.555148 -0.51208,-0.543069 -0.74108,-0.958289 -0.92548,-1.678069 -0.1246,-0.486372 -0.11321,-0.992917 0.17565,-7.810378 0.29372,-6.932142 0.39639,-8.488248 0.55363,-8.391067 0.038,0.02348 0.0506,-0.02788 0.0281,-0.114135 -0.0226,-0.08626 0.01,-0.21104 0.0714,-0.2773 0.0618,-0.06626 0.12365,-0.172349 0.1374,-0.235756 0.0473,-0.218306 0.52377,-0.839824 0.88403,-1.153177 0.44944,-0.390934 1.21889,-0.765644 1.83714,-0.894663 0.71173,-0.148525 1.58095,0.01835 3.22284,0.618735 3.35112,1.225391 6.70358,2.673614 10.16146,4.389634 2.264,1.123537 4.56937,2.336571 4.65521,2.449463 0.0233,0.03062 0.11853,0.0836 0.21166,0.117722 0.14187,0.05198 0.5331,0.275598 2.159,1.23402 1.98061,1.16751 4.76614,2.939765 4.81189,3.061495 0.0155,0.0413 0.0647,0.07509 0.10917,0.07509 0.15571,0 0.91962,0.565826 0.85707,0.634832 -0.0347,0.03831 -0.0239,0.0474 0.0242,0.02021 0.24247,-0.137344 5.90788,4.135342 9.02158,6.803817 3.30816,2.835124 7.05419,6.48007 9.95477,9.686142 6.73502,7.444367 12.65139,16.289856 16.96068,25.357668 1.19207,2.5084 2.21623,4.90346 2.14784,5.02286 -0.0313,0.0547 -0.0239,0.0694 0.0164,0.0326 0.0848,-0.0773 1.24585,2.79894 1.17567,2.91249 -0.0256,0.0415 -0.002,0.0754 0.0521,0.0754 0.0586,0 0.076,0.0592 0.0429,0.14558 -0.0307,0.0801 -0.0272,0.11692 0.008,0.0819 0.0846,-0.0846 0.53009,1.13321 1.55675,4.25621 0.46625,1.41828 0.88842,2.84093 0.93815,3.16146 0.29291,1.88783 -1.06968,3.84676 -2.98245,4.28772 -0.52912,0.12198 -1.08691,0.10652 -8.9652,-0.24851 z m 41.402,-3.00922 c -3.46922,-0.15292 -6.53875,-0.31491 -6.82117,-0.35998 -1.05389,-0.16817 -2.16927,-0.96939 -2.67782,-1.92358 -0.13168,-0.24708 -0.42527,-1.21887 -0.70341,-2.32833 C 221.13063,97.44156 210.69392,78.797344 195.62458,63.48498 181.60106,49.235307 164.5415,38.87032 145.56612,33.070634 c -1.5991,-0.488751 -2.00258,-0.689055 -2.60509,-1.293277 -0.53016,-0.53167 -0.88139,-1.174104 -1.03047,-1.884844 -0.13412,-0.639435 0.47152,-15.079155 0.66336,-15.815897 0.26454,-1.015902 1.04523,-1.9459 2.05061,-2.442789 0.62889,-0.310811 0.64982,-0.314778 1.65732,-0.314106 0.94821,6.34e-4 1.11023,0.02646 2.29039,0.365055 10.10537,2.899307 19.11568,6.518376 27.81301,11.171337 18.36139,9.823115 34.33489,23.562578 46.8116,40.264579 11.19605,14.987653 19.27538,31.93182 23.74488,49.798348 0.71883,2.87345 1.41019,6.10478 1.41019,6.59102 0,1.67614 -1.12428,3.20918 -2.71704,3.70491 -0.68396,0.21287 -1.27047,0.20385 -9.05163,-0.13912 z"
       id="path1" /></g></svg>
